<?xml version="1.0" encoding="UTF-8"?>
<svg xmlns="http://www.w3.org/2000/svg" xmlns:xlink="http://www.w3.org/1999/xlink" width="504" height="504" viewBox="0 0 504 504">
<defs>
<g>
<g id="glyph-0-0">
<path d="M 0.09375 0 L 0.09375 -3.96875 L 4.1875 -3.96875 L 4.1875 0 Z M 3.65625 -0.546875 L 3.65625 -3.4375 L 0.640625 -3.4375 L 0.640625 -0.546875 Z M 3.65625 -0.546875 "/>
</g>
<g id="glyph-0-1">
<path d="M 1.78125 -4.03125 C 1.78125 -4.019531 1.78125 -4.007812 1.78125 -4 C 1.789062 -4 1.796875 -3.988281 1.796875 -3.96875 L 1.796875 -0.4375 C 1.796875 -0.289062 1.832031 -0.195312 1.90625 -0.15625 C 1.988281 -0.113281 2.140625 -0.0859375 2.359375 -0.078125 L 2.359375 0 L 0.703125 0 L 0.703125 -0.09375 C 0.941406 -0.101562 1.097656 -0.132812 1.171875 -0.1875 C 1.242188 -0.238281 1.28125 -0.351562 1.28125 -0.53125 L 1.28125 -3.234375 C 1.28125 -3.328125 1.265625 -3.398438 1.234375 -3.453125 C 1.210938 -3.503906 1.164062 -3.53125 1.09375 -3.53125 C 1.039062 -3.53125 0.972656 -3.515625 0.890625 -3.484375 C 0.804688 -3.453125 0.734375 -3.421875 0.671875 -3.390625 L 0.671875 -3.484375 L 1.734375 -4.03125 Z M 1.78125 -4.03125 "/>
</g>
<g id="glyph-0-2">
<path d="M 1.5 -1.671875 C 1.632812 -1.671875 1.769531 -1.707031 1.90625 -1.78125 C 2.050781 -1.863281 2.132812 -1.929688 2.15625 -1.984375 C 2.15625 -1.992188 2.160156 -2.0625 2.171875 -2.1875 C 2.179688 -2.320312 2.1875 -2.425781 2.1875 -2.5 C 2.1875 -2.90625 2.113281 -3.234375 1.96875 -3.484375 C 1.832031 -3.742188 1.632812 -3.875 1.375 -3.875 C 1.1875 -3.875 1.03125 -3.785156 0.90625 -3.609375 C 0.789062 -3.441406 0.734375 -3.179688 0.734375 -2.828125 C 0.734375 -2.546875 0.785156 -2.28125 0.890625 -2.03125 C 1.003906 -1.789062 1.207031 -1.671875 1.5 -1.671875 Z M 1.421875 -4.046875 C 1.847656 -4.046875 2.175781 -3.875 2.40625 -3.53125 C 2.644531 -3.1875 2.765625 -2.800781 2.765625 -2.375 C 2.765625 -2.082031 2.707031 -1.78125 2.59375 -1.46875 C 2.476562 -1.164062 2.316406 -0.894531 2.109375 -0.65625 C 1.859375 -0.375 1.546875 -0.164062 1.171875 -0.03125 C 0.953125 0.0390625 0.679688 0.0976562 0.359375 0.140625 L 0.328125 0.03125 C 0.535156 -0.0195312 0.707031 -0.0703125 0.84375 -0.125 C 1.082031 -0.21875 1.273438 -0.335938 1.421875 -0.484375 C 1.628906 -0.679688 1.796875 -0.898438 1.921875 -1.140625 C 2.046875 -1.378906 2.125 -1.582031 2.15625 -1.75 L 2.046875 -1.671875 C 1.898438 -1.566406 1.726562 -1.492188 1.53125 -1.453125 C 1.4375 -1.421875 1.347656 -1.40625 1.265625 -1.40625 C 0.929688 -1.40625 0.664062 -1.523438 0.46875 -1.765625 C 0.269531 -2.003906 0.171875 -2.285156 0.171875 -2.609375 C 0.171875 -3.023438 0.285156 -3.367188 0.515625 -3.640625 C 0.753906 -3.910156 1.054688 -4.046875 1.421875 -4.046875 Z M 1.421875 -4.046875 "/>
</g>
<g id="glyph-0-3">
<path d="M 2.671875 -1.546875 L 1.984375 -3.1875 L 1.296875 -1.546875 Z M 0.09375 0 L 0.09375 -0.109375 C 0.238281 -0.128906 0.347656 -0.1875 0.421875 -0.28125 C 0.503906 -0.382812 0.640625 -0.65625 0.828125 -1.09375 L 2.078125 -4.046875 L 2.203125 -4.046875 L 3.6875 -0.640625 C 3.789062 -0.410156 3.867188 -0.269531 3.921875 -0.21875 C 3.984375 -0.164062 4.085938 -0.128906 4.234375 -0.109375 L 4.234375 0 L 2.703125 0 L 2.703125 -0.109375 C 2.878906 -0.117188 2.992188 -0.132812 3.046875 -0.15625 C 3.097656 -0.1875 3.125 -0.242188 3.125 -0.328125 C 3.125 -0.359375 3.113281 -0.410156 3.09375 -0.484375 C 3.070312 -0.554688 3.046875 -0.632812 3.015625 -0.71875 L 2.765625 -1.296875 L 1.1875 -1.296875 C 1.03125 -0.898438 0.9375 -0.660156 0.90625 -0.578125 C 0.882812 -0.492188 0.875 -0.425781 0.875 -0.375 C 0.875 -0.269531 0.910156 -0.195312 0.984375 -0.15625 C 1.035156 -0.132812 1.132812 -0.117188 1.28125 -0.109375 L 1.28125 0 Z M 2.140625 -4.046875 Z M 2.140625 -4.046875 "/>
</g>
<g id="glyph-0-4">
<path d="M 2.21875 -4.046875 C 2.4375 -4.046875 2.660156 -4.007812 2.890625 -3.9375 C 3.117188 -3.875 3.242188 -3.84375 3.265625 -3.84375 C 3.328125 -3.84375 3.382812 -3.859375 3.4375 -3.890625 C 3.488281 -3.921875 3.523438 -3.972656 3.546875 -4.046875 L 3.671875 -4.046875 L 3.71875 -2.6875 L 3.578125 -2.6875 C 3.503906 -2.957031 3.398438 -3.175781 3.265625 -3.34375 C 3.023438 -3.644531 2.695312 -3.796875 2.28125 -3.796875 C 1.851562 -3.796875 1.503906 -3.628906 1.234375 -3.296875 C 0.972656 -2.972656 0.84375 -2.519531 0.84375 -1.9375 C 0.84375 -1.394531 0.984375 -0.960938 1.265625 -0.640625 C 1.546875 -0.328125 1.898438 -0.171875 2.328125 -0.171875 C 2.640625 -0.171875 2.925781 -0.242188 3.1875 -0.390625 C 3.34375 -0.472656 3.507812 -0.601562 3.6875 -0.78125 L 3.796875 -0.671875 C 3.660156 -0.492188 3.492188 -0.34375 3.296875 -0.21875 C 2.960938 -0.0078125 2.597656 0.09375 2.203125 0.09375 C 1.566406 0.09375 1.054688 -0.109375 0.671875 -0.515625 C 0.328125 -0.898438 0.15625 -1.378906 0.15625 -1.953125 C 0.15625 -2.535156 0.335938 -3.023438 0.703125 -3.421875 C 1.085938 -3.835938 1.59375 -4.046875 2.21875 -4.046875 Z M 2.203125 -4.046875 Z M 2.203125 -4.046875 "/>
</g>
<g id="glyph-0-5">
<path d="M 0.453125 -0.53125 C 0.554688 -0.53125 0.695312 -0.46875 0.875 -0.34375 C 1.0625 -0.21875 1.203125 -0.15625 1.296875 -0.15625 C 1.523438 -0.15625 1.722656 -0.253906 1.890625 -0.453125 C 2.054688 -0.648438 2.140625 -0.894531 2.140625 -1.1875 C 2.140625 -1.695312 1.875 -2.0625 1.34375 -2.28125 C 1.039062 -2.40625 0.757812 -2.46875 0.5 -2.46875 C 0.457031 -2.46875 0.429688 -2.46875 0.421875 -2.46875 C 0.410156 -2.46875 0.394531 -2.476562 0.375 -2.5 C 0.382812 -2.507812 0.390625 -2.519531 0.390625 -2.53125 C 0.390625 -2.550781 0.394531 -2.5625 0.40625 -2.5625 L 1.046875 -3.96875 L 2.296875 -3.96875 C 2.359375 -3.96875 2.40625 -3.976562 2.4375 -4 C 2.476562 -4.019531 2.523438 -4.0625 2.578125 -4.125 L 2.625 -4.078125 L 2.390625 -3.546875 C 2.378906 -3.523438 2.359375 -3.507812 2.328125 -3.5 C 2.296875 -3.5 2.257812 -3.5 2.21875 -3.5 L 1.078125 -3.5 L 0.828125 -2.984375 C 1.148438 -2.929688 1.382812 -2.878906 1.53125 -2.828125 C 1.78125 -2.742188 1.984375 -2.625 2.140625 -2.46875 C 2.285156 -2.332031 2.394531 -2.175781 2.46875 -2 C 2.539062 -1.820312 2.578125 -1.640625 2.578125 -1.453125 C 2.578125 -1.015625 2.421875 -0.648438 2.109375 -0.359375 C 1.804688 -0.078125 1.421875 0.0625 0.953125 0.0625 C 0.753906 0.0625 0.597656 0.046875 0.484375 0.015625 C 0.285156 -0.046875 0.1875 -0.15625 0.1875 -0.3125 C 0.1875 -0.375 0.207031 -0.425781 0.25 -0.46875 C 0.289062 -0.507812 0.359375 -0.53125 0.453125 -0.53125 Z M 0.453125 -0.53125 "/>
</g>
<g id="glyph-0-6">
<path d="M 2.6875 -3.96875 L 2.6875 -3.875 L 1.421875 0.0625 L 1.03125 0.0625 L 2.21875 -3.53125 L 0.9375 -3.53125 C 0.75 -3.53125 0.613281 -3.5 0.53125 -3.4375 C 0.445312 -3.375 0.34375 -3.242188 0.21875 -3.046875 L 0.125 -3.09375 C 0.25 -3.40625 0.328125 -3.597656 0.359375 -3.671875 C 0.390625 -3.742188 0.425781 -3.84375 0.46875 -3.96875 Z M 2.6875 -3.96875 "/>
</g>
<g id="glyph-0-7">
<path d="M 0.0625 -0.109375 C 0.289062 -0.128906 0.4375 -0.164062 0.5 -0.21875 C 0.5625 -0.28125 0.59375 -0.425781 0.59375 -0.65625 L 0.59375 -3.3125 C 0.59375 -3.53125 0.5625 -3.671875 0.5 -3.734375 C 0.4375 -3.796875 0.289062 -3.835938 0.0625 -3.859375 L 0.0625 -3.96875 L 3.25 -3.96875 L 3.28125 -3.109375 L 3.125 -3.109375 C 3.070312 -3.367188 2.992188 -3.535156 2.890625 -3.609375 C 2.796875 -3.691406 2.570312 -3.734375 2.21875 -3.734375 L 1.40625 -3.734375 C 1.3125 -3.734375 1.253906 -3.71875 1.234375 -3.6875 C 1.210938 -3.664062 1.203125 -3.617188 1.203125 -3.546875 L 1.203125 -2.203125 L 2.125 -2.203125 C 2.382812 -2.203125 2.546875 -2.238281 2.609375 -2.3125 C 2.679688 -2.382812 2.742188 -2.539062 2.796875 -2.78125 L 2.9375 -2.78125 L 2.9375 -1.390625 L 2.796875 -1.390625 C 2.742188 -1.617188 2.679688 -1.769531 2.609375 -1.84375 C 2.546875 -1.925781 2.382812 -1.96875 2.125 -1.96875 L 1.203125 -1.96875 L 1.203125 -0.484375 C 1.203125 -0.359375 1.238281 -0.285156 1.3125 -0.265625 C 1.394531 -0.242188 1.625 -0.234375 2 -0.234375 C 2.40625 -0.234375 2.703125 -0.273438 2.890625 -0.359375 C 3.085938 -0.453125 3.265625 -0.671875 3.421875 -1.015625 L 3.578125 -1.015625 L 3.3125 0 L 0.0625 0 Z M 1.84375 -3.96875 Z M 1.84375 -3.96875 "/>
</g>
<g id="glyph-0-8">
<path d="M 0.171875 -0.0625 C 0.890625 -0.8125 1.375 -1.359375 1.625 -1.703125 C 1.882812 -2.046875 2.015625 -2.382812 2.015625 -2.71875 C 2.015625 -3.007812 1.9375 -3.226562 1.78125 -3.375 C 1.625 -3.53125 1.4375 -3.609375 1.21875 -3.609375 C 0.957031 -3.609375 0.742188 -3.507812 0.578125 -3.3125 C 0.484375 -3.207031 0.394531 -3.039062 0.3125 -2.8125 L 0.1875 -2.84375 C 0.28125 -3.289062 0.441406 -3.601562 0.671875 -3.78125 C 0.910156 -3.957031 1.164062 -4.046875 1.4375 -4.046875 C 1.757812 -4.046875 2.023438 -3.941406 2.234375 -3.734375 C 2.441406 -3.523438 2.546875 -3.269531 2.546875 -2.96875 C 2.546875 -2.644531 2.429688 -2.332031 2.203125 -2.03125 C 1.984375 -1.738281 1.503906 -1.210938 0.765625 -0.453125 L 2.109375 -0.453125 C 2.296875 -0.453125 2.425781 -0.472656 2.5 -0.515625 C 2.582031 -0.566406 2.671875 -0.679688 2.765625 -0.859375 L 2.84375 -0.8125 L 2.515625 0 L 0.171875 0 Z M 0.171875 -0.0625 "/>
</g>
<g id="glyph-0-9">
<path d="M 0.09375 -0.109375 C 0.332031 -0.128906 0.476562 -0.171875 0.53125 -0.234375 C 0.59375 -0.296875 0.625 -0.457031 0.625 -0.71875 L 0.625 -3.3125 C 0.625 -3.53125 0.585938 -3.671875 0.515625 -3.734375 C 0.453125 -3.796875 0.3125 -3.835938 0.09375 -3.859375 L 0.09375 -3.96875 L 1.765625 -3.96875 L 1.765625 -3.859375 C 1.546875 -3.835938 1.398438 -3.796875 1.328125 -3.734375 C 1.265625 -3.671875 1.234375 -3.53125 1.234375 -3.3125 L 1.234375 -2.15625 L 3.046875 -2.15625 L 3.046875 -3.3125 C 3.046875 -3.53125 3.015625 -3.671875 2.953125 -3.734375 C 2.890625 -3.796875 2.75 -3.835938 2.53125 -3.859375 L 2.53125 -3.96875 L 4.1875 -3.96875 L 4.1875 -3.859375 C 3.96875 -3.835938 3.828125 -3.796875 3.765625 -3.734375 C 3.703125 -3.671875 3.671875 -3.53125 3.671875 -3.3125 L 3.671875 -0.65625 C 3.671875 -0.4375 3.703125 -0.296875 3.765625 -0.234375 C 3.828125 -0.171875 3.96875 -0.128906 4.1875 -0.109375 L 4.1875 0 L 2.53125 0 L 2.53125 -0.109375 C 2.757812 -0.128906 2.898438 -0.171875 2.953125 -0.234375 C 3.015625 -0.296875 3.046875 -0.457031 3.046875 -0.71875 L 3.046875 -1.890625 L 1.234375 -1.890625 L 1.234375 -0.65625 C 1.234375 -0.4375 1.265625 -0.296875 1.328125 -0.234375 C 1.398438 -0.171875 1.546875 -0.128906 1.765625 -0.109375 L 1.765625 0 L 0.09375 0 Z M 0.09375 -0.109375 "/>
</g>
<g id="glyph-0-10">
<path d="M 1.75 -3.421875 L 0.3125 -1.390625 L 1.75 -1.390625 Z M 1.9375 -4.03125 L 2.21875 -4.03125 L 2.21875 -1.390625 L 2.828125 -1.390625 L 2.828125 -1 L 2.21875 -1 L 2.21875 0 L 1.75 0 L 1.75 -1 L 0.0625 -1 L 0.0625 -1.390625 Z M 1.9375 -4.03125 "/>
</g>
<g id="glyph-0-11">
<path d="M 1.6875 -3.96875 L 1.6875 -3.859375 C 1.539062 -3.859375 1.441406 -3.847656 1.390625 -3.828125 C 1.296875 -3.796875 1.25 -3.734375 1.25 -3.640625 C 1.25 -3.585938 1.265625 -3.515625 1.296875 -3.421875 C 1.328125 -3.335938 1.390625 -3.191406 1.484375 -2.984375 L 2.421875 -0.90625 L 3.28125 -3.171875 C 3.3125 -3.265625 3.335938 -3.34375 3.359375 -3.40625 C 3.378906 -3.476562 3.390625 -3.535156 3.390625 -3.578125 C 3.390625 -3.691406 3.335938 -3.769531 3.234375 -3.8125 C 3.179688 -3.84375 3.085938 -3.859375 2.953125 -3.859375 L 2.953125 -3.96875 L 4.171875 -3.96875 L 4.171875 -3.875 C 4.046875 -3.851562 3.953125 -3.816406 3.890625 -3.765625 C 3.804688 -3.691406 3.71875 -3.539062 3.625 -3.3125 L 2.296875 0.078125 L 2.203125 0.078125 L 0.734375 -3.234375 C 0.609375 -3.503906 0.503906 -3.675781 0.421875 -3.75 C 0.347656 -3.820312 0.238281 -3.863281 0.09375 -3.875 L 0.09375 -3.96875 Z M 1.6875 -3.96875 "/>
</g>
<g id="glyph-0-12">
<path d="M 2.59375 -2.875 C 2.59375 -3.25 2.4375 -3.503906 2.125 -3.640625 C 1.945312 -3.710938 1.734375 -3.75 1.484375 -3.75 C 1.359375 -3.75 1.28125 -3.734375 1.25 -3.703125 C 1.21875 -3.679688 1.203125 -3.628906 1.203125 -3.546875 L 1.203125 -1.984375 C 1.316406 -1.972656 1.390625 -1.96875 1.421875 -1.96875 C 1.453125 -1.96875 1.484375 -1.96875 1.515625 -1.96875 C 1.785156 -1.96875 2.003906 -2.003906 2.171875 -2.078125 C 2.453125 -2.222656 2.59375 -2.488281 2.59375 -2.875 Z M 0.09375 -0.109375 C 0.320312 -0.128906 0.460938 -0.171875 0.515625 -0.234375 C 0.578125 -0.304688 0.609375 -0.46875 0.609375 -0.71875 L 0.609375 -3.3125 C 0.609375 -3.53125 0.578125 -3.671875 0.515625 -3.734375 C 0.453125 -3.796875 0.3125 -3.835938 0.09375 -3.859375 L 0.09375 -3.96875 L 1.671875 -3.96875 C 2.179688 -3.96875 2.570312 -3.867188 2.84375 -3.671875 C 3.113281 -3.472656 3.25 -3.210938 3.25 -2.890625 C 3.25 -2.484375 3.097656 -2.1875 2.796875 -2 C 2.503906 -1.820312 2.128906 -1.734375 1.671875 -1.734375 C 1.609375 -1.734375 1.523438 -1.734375 1.421875 -1.734375 C 1.328125 -1.734375 1.253906 -1.734375 1.203125 -1.734375 L 1.203125 -0.65625 C 1.203125 -0.425781 1.238281 -0.28125 1.3125 -0.21875 C 1.382812 -0.164062 1.539062 -0.128906 1.78125 -0.109375 L 1.78125 0 L 0.09375 0 Z M 0.09375 -0.109375 "/>
</g>
<g id="glyph-0-13">
<path d="M 0.46875 -0.515625 C 0.570312 -0.515625 0.710938 -0.457031 0.890625 -0.34375 C 1.066406 -0.226562 1.21875 -0.171875 1.34375 -0.171875 C 1.613281 -0.171875 1.816406 -0.265625 1.953125 -0.453125 C 2.085938 -0.640625 2.15625 -0.84375 2.15625 -1.0625 C 2.15625 -1.269531 2.097656 -1.453125 1.984375 -1.609375 C 1.804688 -1.867188 1.5 -2 1.0625 -2 C 1.039062 -2 1.019531 -2 1 -2 C 0.976562 -2 0.953125 -2 0.921875 -2 L 0.90625 -2.078125 C 1.21875 -2.191406 1.460938 -2.320312 1.640625 -2.46875 C 1.828125 -2.613281 1.921875 -2.804688 1.921875 -3.046875 C 1.921875 -3.253906 1.847656 -3.414062 1.703125 -3.53125 C 1.554688 -3.644531 1.394531 -3.703125 1.21875 -3.703125 C 1 -3.703125 0.8125 -3.617188 0.65625 -3.453125 C 0.5625 -3.367188 0.460938 -3.238281 0.359375 -3.0625 L 0.265625 -3.078125 C 0.347656 -3.378906 0.492188 -3.617188 0.703125 -3.796875 C 0.921875 -3.972656 1.164062 -4.0625 1.4375 -4.0625 C 1.738281 -4.0625 1.96875 -3.976562 2.125 -3.8125 C 2.289062 -3.644531 2.375 -3.457031 2.375 -3.25 C 2.375 -3.0625 2.3125 -2.882812 2.1875 -2.71875 C 2.101562 -2.632812 1.984375 -2.535156 1.828125 -2.421875 C 2.015625 -2.335938 2.164062 -2.242188 2.28125 -2.140625 C 2.488281 -1.929688 2.59375 -1.671875 2.59375 -1.359375 C 2.59375 -0.992188 2.445312 -0.664062 2.15625 -0.375 C 1.863281 -0.09375 1.445312 0.046875 0.90625 0.046875 C 0.664062 0.046875 0.5 0.0078125 0.40625 -0.0625 C 0.3125 -0.132812 0.265625 -0.210938 0.265625 -0.296875 C 0.265625 -0.347656 0.28125 -0.394531 0.3125 -0.4375 C 0.34375 -0.488281 0.394531 -0.515625 0.46875 -0.515625 Z M 0.46875 -0.515625 "/>
</g>
<g id="glyph-0-14">
<path d="M 1.234375 -0.46875 C 1.234375 -0.363281 1.253906 -0.296875 1.296875 -0.265625 C 1.347656 -0.234375 1.453125 -0.21875 1.609375 -0.21875 C 2.078125 -0.21875 2.460938 -0.3125 2.765625 -0.5 C 3.222656 -0.78125 3.453125 -1.269531 3.453125 -1.96875 C 3.453125 -2.582031 3.265625 -3.046875 2.890625 -3.359375 C 2.554688 -3.617188 2.117188 -3.75 1.578125 -3.75 C 1.441406 -3.75 1.347656 -3.734375 1.296875 -3.703125 C 1.253906 -3.671875 1.234375 -3.609375 1.234375 -3.515625 Z M 0.09375 -0.109375 C 0.3125 -0.128906 0.453125 -0.164062 0.515625 -0.21875 C 0.585938 -0.28125 0.625 -0.425781 0.625 -0.65625 L 0.625 -3.3125 C 0.625 -3.53125 0.59375 -3.671875 0.53125 -3.734375 C 0.46875 -3.796875 0.320312 -3.835938 0.09375 -3.859375 L 0.09375 -3.96875 L 1.71875 -3.96875 C 2.257812 -3.96875 2.71875 -3.878906 3.09375 -3.703125 C 3.769531 -3.378906 4.109375 -2.800781 4.109375 -1.96875 C 4.109375 -1.675781 4.046875 -1.394531 3.921875 -1.125 C 3.804688 -0.851562 3.625 -0.625 3.375 -0.4375 C 3.21875 -0.320312 3.054688 -0.234375 2.890625 -0.171875 C 2.585938 -0.0546875 2.210938 0 1.765625 0 L 0.09375 0 Z M 0.09375 -0.109375 "/>
</g>
<g id="glyph-0-15">
<path d="M 1.515625 -0.09375 C 1.734375 -0.09375 1.898438 -0.15625 2.015625 -0.28125 C 2.128906 -0.40625 2.1875 -0.5625 2.1875 -0.75 C 2.1875 -0.96875 2.125 -1.140625 2 -1.265625 C 1.882812 -1.398438 1.632812 -1.601562 1.25 -1.875 C 1.082031 -1.769531 0.960938 -1.628906 0.890625 -1.453125 C 0.816406 -1.285156 0.78125 -1.125 0.78125 -0.96875 C 0.78125 -0.707031 0.847656 -0.492188 0.984375 -0.328125 C 1.117188 -0.171875 1.296875 -0.09375 1.515625 -0.09375 Z M 1.546875 -2.34375 C 1.734375 -2.46875 1.859375 -2.570312 1.921875 -2.65625 C 2.046875 -2.8125 2.109375 -2.992188 2.109375 -3.203125 C 2.109375 -3.390625 2.050781 -3.546875 1.9375 -3.671875 C 1.820312 -3.804688 1.648438 -3.875 1.421875 -3.875 C 1.242188 -3.875 1.09375 -3.816406 0.96875 -3.703125 C 0.851562 -3.585938 0.796875 -3.453125 0.796875 -3.296875 C 0.796875 -3.109375 0.863281 -2.9375 1 -2.78125 C 1.132812 -2.625 1.316406 -2.476562 1.546875 -2.34375 Z M 1.09375 -2 C 0.832031 -2.207031 0.65625 -2.375 0.5625 -2.5 C 0.425781 -2.6875 0.359375 -2.890625 0.359375 -3.109375 C 0.359375 -3.367188 0.460938 -3.585938 0.671875 -3.765625 C 0.890625 -3.953125 1.164062 -4.046875 1.5 -4.046875 C 1.820312 -4.046875 2.070312 -3.957031 2.25 -3.78125 C 2.4375 -3.613281 2.53125 -3.414062 2.53125 -3.1875 C 2.53125 -2.957031 2.4375 -2.753906 2.25 -2.578125 C 2.144531 -2.472656 1.96875 -2.351562 1.71875 -2.21875 C 2.050781 -1.976562 2.289062 -1.765625 2.4375 -1.578125 C 2.582031 -1.390625 2.65625 -1.175781 2.65625 -0.9375 C 2.65625 -0.65625 2.546875 -0.414062 2.328125 -0.21875 C 2.117188 -0.03125 1.835938 0.0625 1.484375 0.0625 C 1.160156 0.0625 0.882812 -0.0234375 0.65625 -0.203125 C 0.425781 -0.378906 0.3125 -0.613281 0.3125 -0.90625 C 0.3125 -1.144531 0.394531 -1.363281 0.5625 -1.5625 C 0.664062 -1.675781 0.84375 -1.820312 1.09375 -2 Z M 1.09375 -2 "/>
</g>
<g id="glyph-0-16">
<path d="M 0.0625 -0.34375 C 0.0625 -0.445312 0.0859375 -0.519531 0.140625 -0.5625 C 0.203125 -0.613281 0.269531 -0.640625 0.34375 -0.640625 C 0.476562 -0.640625 0.578125 -0.554688 0.640625 -0.390625 C 0.703125 -0.222656 0.769531 -0.140625 0.84375 -0.140625 C 0.925781 -0.140625 0.984375 -0.171875 1.015625 -0.234375 C 1.046875 -0.304688 1.0625 -0.429688 1.0625 -0.609375 L 1.0625 -3.3125 C 1.0625 -3.539062 1.023438 -3.6875 0.953125 -3.75 C 0.878906 -3.8125 0.726562 -3.847656 0.5 -3.859375 L 0.5 -3.96875 L 2.21875 -3.96875 L 2.21875 -3.859375 C 1.988281 -3.847656 1.835938 -3.804688 1.765625 -3.734375 C 1.703125 -3.660156 1.671875 -3.519531 1.671875 -3.3125 L 1.671875 -1.109375 C 1.671875 -0.710938 1.570312 -0.414062 1.375 -0.21875 C 1.175781 -0.0195312 0.9375 0.078125 0.65625 0.078125 C 0.46875 0.078125 0.320312 0.0351562 0.21875 -0.046875 C 0.113281 -0.140625 0.0625 -0.238281 0.0625 -0.34375 Z M 0.0625 -0.34375 "/>
</g>
<g id="glyph-0-17">
<path d="M 2.8125 -1.328125 C 2.8125 -0.972656 2.695312 -0.648438 2.46875 -0.359375 C 2.238281 -0.078125 1.9375 0.0625 1.5625 0.0625 C 1.21875 0.0625 0.90625 -0.0976562 0.625 -0.421875 C 0.34375 -0.742188 0.203125 -1.171875 0.203125 -1.703125 C 0.203125 -2.390625 0.476562 -2.984375 1.03125 -3.484375 C 1.519531 -3.898438 2.066406 -4.109375 2.671875 -4.109375 L 2.6875 -4 C 2.445312 -3.957031 2.238281 -3.894531 2.0625 -3.8125 C 1.882812 -3.738281 1.722656 -3.632812 1.578125 -3.5 C 1.441406 -3.351562 1.3125 -3.171875 1.1875 -2.953125 C 1.0625 -2.742188 0.972656 -2.53125 0.921875 -2.3125 C 1.046875 -2.382812 1.148438 -2.441406 1.234375 -2.484375 C 1.390625 -2.546875 1.546875 -2.578125 1.703125 -2.578125 C 2.015625 -2.578125 2.273438 -2.46875 2.484375 -2.25 C 2.703125 -2.039062 2.8125 -1.734375 2.8125 -1.328125 Z M 2.265625 -1.109375 C 2.265625 -1.367188 2.222656 -1.597656 2.140625 -1.796875 C 2.003906 -2.128906 1.773438 -2.296875 1.453125 -2.296875 C 1.148438 -2.296875 0.945312 -2.207031 0.84375 -2.03125 C 0.789062 -1.925781 0.765625 -1.75 0.765625 -1.5 C 0.765625 -1.1875 0.832031 -0.875 0.96875 -0.5625 C 1.101562 -0.257812 1.316406 -0.109375 1.609375 -0.109375 C 1.835938 -0.109375 2.003906 -0.207031 2.109375 -0.40625 C 2.210938 -0.601562 2.265625 -0.835938 2.265625 -1.109375 Z M 2.265625 -1.109375 "/>
</g>
<g id="glyph-0-18">
<path d="M 1.4375 -0.109375 C 1.71875 -0.109375 1.910156 -0.265625 2.015625 -0.578125 C 2.128906 -0.890625 2.1875 -1.347656 2.1875 -1.953125 C 2.1875 -2.421875 2.15625 -2.796875 2.09375 -3.078125 C 1.96875 -3.609375 1.738281 -3.875 1.40625 -3.875 C 1.082031 -3.875 0.859375 -3.601562 0.734375 -3.0625 C 0.671875 -2.769531 0.640625 -2.390625 0.640625 -1.921875 C 0.640625 -1.472656 0.671875 -1.117188 0.734375 -0.859375 C 0.859375 -0.359375 1.09375 -0.109375 1.4375 -0.109375 Z M 1.421875 -4.03125 C 1.867188 -4.03125 2.21875 -3.796875 2.46875 -3.328125 C 2.664062 -2.941406 2.765625 -2.503906 2.765625 -2.015625 C 2.765625 -1.628906 2.707031 -1.265625 2.59375 -0.921875 C 2.363281 -0.265625 1.96875 0.0625 1.40625 0.0625 C 1.019531 0.0625 0.703125 -0.113281 0.453125 -0.46875 C 0.179688 -0.84375 0.046875 -1.347656 0.046875 -1.984375 C 0.046875 -2.492188 0.132812 -2.929688 0.3125 -3.296875 C 0.5625 -3.785156 0.929688 -4.03125 1.421875 -4.03125 Z M 1.421875 -4.03125 "/>
</g>
<g id="glyph-0-19">
<path d="M 1.1875 -2.046875 C 1.625 -2.066406 1.9375 -2.113281 2.125 -2.1875 C 2.4375 -2.320312 2.59375 -2.566406 2.59375 -2.921875 C 2.59375 -3.273438 2.453125 -3.515625 2.171875 -3.640625 C 2.015625 -3.703125 1.8125 -3.734375 1.5625 -3.734375 C 1.394531 -3.734375 1.289062 -3.722656 1.25 -3.703125 C 1.207031 -3.679688 1.1875 -3.625 1.1875 -3.53125 Z M 0.0625 -0.109375 C 0.289062 -0.128906 0.429688 -0.171875 0.484375 -0.234375 C 0.546875 -0.304688 0.578125 -0.46875 0.578125 -0.71875 L 0.578125 -3.3125 C 0.578125 -3.53125 0.546875 -3.671875 0.484375 -3.734375 C 0.421875 -3.796875 0.28125 -3.835938 0.0625 -3.859375 L 0.0625 -3.96875 L 1.734375 -3.96875 C 2.078125 -3.96875 2.363281 -3.925781 2.59375 -3.84375 C 3.03125 -3.675781 3.25 -3.367188 3.25 -2.921875 C 3.25 -2.617188 3.148438 -2.390625 2.953125 -2.234375 C 2.765625 -2.078125 2.503906 -1.972656 2.171875 -1.921875 L 3.40625 -0.390625 C 3.476562 -0.296875 3.550781 -0.226562 3.625 -0.1875 C 3.707031 -0.144531 3.804688 -0.117188 3.921875 -0.109375 L 3.921875 0 L 2.953125 0 L 1.53125 -1.84375 L 1.1875 -1.828125 L 1.1875 -0.65625 C 1.1875 -0.425781 1.21875 -0.28125 1.28125 -0.21875 C 1.351562 -0.164062 1.503906 -0.128906 1.734375 -0.109375 L 1.734375 0 L 0.0625 0 Z M 0.0625 -0.109375 "/>
</g>
<g id="glyph-0-20">
<path d="M 0.125 -3.96875 L 3.5 -3.96875 L 3.546875 -2.953125 L 3.390625 -2.953125 C 3.328125 -3.273438 3.238281 -3.484375 3.125 -3.578125 C 3.019531 -3.671875 2.789062 -3.71875 2.4375 -3.71875 L 2.109375 -3.71875 L 2.109375 -0.65625 C 2.109375 -0.414062 2.144531 -0.269531 2.21875 -0.21875 C 2.289062 -0.164062 2.445312 -0.128906 2.6875 -0.109375 L 2.6875 0 L 0.9375 0 L 0.9375 -0.109375 C 1.195312 -0.128906 1.359375 -0.171875 1.421875 -0.234375 C 1.484375 -0.296875 1.515625 -0.457031 1.515625 -0.71875 L 1.515625 -3.71875 L 1.171875 -3.71875 C 0.847656 -3.71875 0.625 -3.671875 0.5 -3.578125 C 0.375 -3.484375 0.285156 -3.273438 0.234375 -2.953125 L 0.078125 -2.953125 Z M 0.125 -3.96875 "/>
</g>
<g id="glyph-0-21">
<path d="M 0.046875 -0.0625 L 2.671875 -3.734375 L 1.296875 -3.734375 C 0.941406 -3.734375 0.691406 -3.648438 0.546875 -3.484375 C 0.460938 -3.378906 0.394531 -3.195312 0.34375 -2.9375 L 0.1875 -2.9375 L 0.3125 -3.96875 L 3.46875 -3.96875 L 3.46875 -3.90625 L 0.875 -0.234375 L 2.40625 -0.234375 C 2.757812 -0.234375 3.015625 -0.316406 3.171875 -0.484375 C 3.273438 -0.585938 3.363281 -0.78125 3.4375 -1.0625 L 3.578125 -1.0625 L 3.4375 0 L 0.046875 0 Z M 1.84375 -3.96875 Z M 1.84375 -3.96875 "/>
</g>
<g id="glyph-0-22">
<path d="M 0.859375 -1.984375 C 0.859375 -1.347656 0.984375 -0.878906 1.234375 -0.578125 C 1.484375 -0.273438 1.785156 -0.125 2.140625 -0.125 C 2.492188 -0.125 2.796875 -0.269531 3.046875 -0.5625 C 3.296875 -0.863281 3.421875 -1.335938 3.421875 -1.984375 C 3.421875 -2.640625 3.296875 -3.113281 3.046875 -3.40625 C 2.796875 -3.695312 2.492188 -3.84375 2.140625 -3.84375 C 1.785156 -3.84375 1.484375 -3.691406 1.234375 -3.390625 C 0.984375 -3.085938 0.859375 -2.617188 0.859375 -1.984375 Z M 0.171875 -1.984375 C 0.171875 -2.617188 0.375 -3.132812 0.78125 -3.53125 C 1.15625 -3.882812 1.609375 -4.0625 2.140625 -4.0625 C 2.679688 -4.0625 3.140625 -3.878906 3.515625 -3.515625 C 3.910156 -3.128906 4.109375 -2.617188 4.109375 -1.984375 C 4.109375 -1.335938 3.898438 -0.820312 3.484375 -0.4375 C 3.117188 -0.09375 2.671875 0.078125 2.140625 0.078125 C 1.578125 0.078125 1.113281 -0.109375 0.75 -0.484375 C 0.363281 -0.867188 0.171875 -1.367188 0.171875 -1.984375 Z M 2.140625 -4.0625 Z M 2.140625 -4.0625 "/>
</g>
</g>
</defs>
<rect x="-50.4" y="-50.4" width="604.8" height="604.8" fill="rgb(100%, 100%, 100%)" fill-opacity="1"/>
<path fill="none" stroke-width="0.153287" stroke-linecap="round" stroke-linejoin="round" stroke="rgb(90.196078%, 62.352941%, 0%)" stroke-opacity="1" stroke-miterlimit="10" d="M 126.839844 108.464844 L 232.457031 93.792969 "/>
<path fill="none" stroke-width="0.134463" stroke-linecap="round" stroke-linejoin="round" stroke="rgb(33.72549%, 70.588235%, 91.372549%)" stroke-opacity="1" stroke-miterlimit="10" d="M 125.894531 110.066406 L 187.5625 270.558594 "/>
<path fill="none" stroke-width="0.17329" stroke-linecap="round" stroke-linejoin="round" stroke="rgb(33.72549%, 70.588235%, 91.372549%)" stroke-opacity="1" stroke-miterlimit="10" d="M 125.855469 110.078125 L 166.597656 225.859375 "/>
<path fill="none" stroke-width="0.200972" stroke-linecap="round" stroke-linejoin="round" stroke="rgb(33.72549%, 70.588235%, 91.372549%)" stroke-opacity="1" stroke-miterlimit="10" d="M 126.675781 109.371094 L 190.363281 143.292969 "/>
<path fill="none" stroke-width="0.180909" stroke-linecap="round" stroke-linejoin="round" stroke="rgb(33.72549%, 70.588235%, 91.372549%)" stroke-opacity="1" stroke-miterlimit="10" d="M 126.714844 108.042969 L 158.792969 93.171875 "/>
<path fill="none" stroke-width="0.275714" stroke-linecap="round" stroke-linejoin="round" stroke="rgb(33.72549%, 70.588235%, 91.372549%)" stroke-opacity="1" stroke-miterlimit="10" d="M 169.324219 409.914062 L 187.5625 270.558594 "/>
<path fill="none" stroke-width="0.248031" stroke-linecap="round" stroke-linejoin="round" stroke="rgb(33.72549%, 70.588235%, 91.372549%)" stroke-opacity="1" stroke-miterlimit="10" d="M 169.878906 410.046875 L 211.734375 293.386719 "/>
<path fill="none" stroke-width="0.393721" stroke-linecap="round" stroke-linejoin="round" stroke="rgb(33.72549%, 70.588235%, 91.372549%)" stroke-opacity="1" stroke-miterlimit="10" d="M 169.996094 410.09375 L 201.492188 333.761719 "/>
<path fill="none" stroke-width="0.121967" stroke-linecap="round" stroke-linejoin="round" stroke="rgb(33.72549%, 70.588235%, 91.372549%)" stroke-opacity="1" stroke-miterlimit="10" d="M 236.78125 95.484375 L 340.101562 221.492188 "/>
<path fill="none" stroke-width="0.243948" stroke-linecap="round" stroke-linejoin="round" stroke="rgb(33.72549%, 70.588235%, 91.372549%)" stroke-opacity="1" stroke-miterlimit="10" d="M 234.402344 96 L 187.5625 270.558594 "/>
<path fill="none" stroke-width="1.02976" stroke-linecap="round" stroke-linejoin="round" stroke="rgb(90.196078%, 62.352941%, 0%)" stroke-opacity="1" stroke-miterlimit="10" d="M 237.355469 92.019531 L 260.15625 77.835938 "/>
<path fill="none" stroke-width="0.240721" stroke-linecap="round" stroke-linejoin="round" stroke="rgb(33.72549%, 70.588235%, 91.372549%)" stroke-opacity="1" stroke-miterlimit="10" d="M 237.03125 95.253906 L 288.382812 143.71875 "/>
<path fill="none" stroke-width="0.686859" stroke-linecap="round" stroke-linejoin="round" stroke="rgb(90.196078%, 62.352941%, 0%)" stroke-opacity="1" stroke-miterlimit="10" d="M 159.097656 317.632812 L 99.316406 362.761719 "/>
<path fill="none" stroke-width="0.45839" stroke-linecap="round" stroke-linejoin="round" stroke="rgb(33.72549%, 70.588235%, 91.372549%)" stroke-opacity="1" stroke-miterlimit="10" d="M 161.097656 315.476562 L 217.046875 228.085938 "/>
<path fill="none" stroke-width="0.286919" stroke-linecap="round" stroke-linejoin="round" stroke="rgb(33.72549%, 70.588235%, 91.372549%)" stroke-opacity="1" stroke-miterlimit="10" d="M 161.644531 316.101562 L 211.257812 292.953125 "/>
<path fill="none" stroke-width="0.365624" stroke-linecap="round" stroke-linejoin="round" stroke="rgb(33.72549%, 70.588235%, 91.372549%)" stroke-opacity="1" stroke-miterlimit="10" d="M 161.722656 317.171875 L 199.050781 328.59375 "/>
<path fill="none" stroke-width="0.345314" stroke-linecap="round" stroke-linejoin="round" stroke="rgb(33.72549%, 70.588235%, 91.372549%)" stroke-opacity="1" stroke-miterlimit="10" d="M 161.550781 315.925781 L 244.898438 262.539062 "/>
<path fill="none" stroke-width="0.266803" stroke-linecap="round" stroke-linejoin="round" stroke="rgb(33.72549%, 70.588235%, 91.372549%)" stroke-opacity="1" stroke-miterlimit="10" d="M 161.355469 315.683594 L 225.507812 252.183594 "/>
<path fill="none" stroke-width="0.158505" stroke-linecap="round" stroke-linejoin="round" stroke="rgb(33.72549%, 70.588235%, 91.372549%)" stroke-opacity="1" stroke-miterlimit="10" d="M 99.226562 362.660156 L 187.5625 270.558594 "/>
<path fill="none" stroke-width="0.366203" stroke-linecap="round" stroke-linejoin="round" stroke="rgb(33.72549%, 70.588235%, 91.372549%)" stroke-opacity="1" stroke-miterlimit="10" d="M 217.996094 224.234375 L 213.484375 171.191406 "/>
<path fill="none" stroke-width="0.512334" stroke-linecap="round" stroke-linejoin="round" stroke="rgb(33.72549%, 70.588235%, 91.372549%)" stroke-opacity="1" stroke-miterlimit="10" d="M 216.984375 228.042969 L 187.5625 270.558594 "/>
<path fill="none" stroke-width="0.178216" stroke-linecap="round" stroke-linejoin="round" stroke="rgb(33.72549%, 70.588235%, 91.372549%)" stroke-opacity="1" stroke-miterlimit="10" d="M 218.757812 224.308594 L 261.011719 78.480469 "/>
<path fill="none" stroke-width="0.401636" stroke-linecap="round" stroke-linejoin="round" stroke="rgb(33.72549%, 70.588235%, 91.372549%)" stroke-opacity="1" stroke-miterlimit="10" d="M 219.585938 224.773438 L 288.582031 149.042969 "/>
<path fill="none" stroke-width="0.42085" stroke-linecap="round" stroke-linejoin="round" stroke="rgb(33.72549%, 70.588235%, 91.372549%)" stroke-opacity="1" stroke-miterlimit="10" d="M 218.824219 228.3125 L 252.832031 332.898438 "/>
<path fill="none" stroke-width="0.141496" stroke-linecap="round" stroke-linejoin="round" stroke="rgb(33.72549%, 70.588235%, 91.372549%)" stroke-opacity="1" stroke-miterlimit="10" d="M 220.269531 226.261719 L 290.492188 224.210938 "/>
<path fill="none" stroke-width="1.304013" stroke-linecap="round" stroke-linejoin="round" stroke="rgb(90.196078%, 62.352941%, 0%)" stroke-opacity="1" stroke-miterlimit="10" d="M 217.980469 228.40625 L 212.09375 291.761719 "/>
<path fill="none" stroke-width="0.310119" stroke-linecap="round" stroke-linejoin="round" stroke="rgb(33.72549%, 70.588235%, 91.372549%)" stroke-opacity="1" stroke-miterlimit="10" d="M 217.875 228.394531 L 203.722656 325.636719 "/>
<path fill="none" stroke-width="0.119508" stroke-linecap="round" stroke-linejoin="round" stroke="rgb(33.72549%, 70.588235%, 91.372549%)" stroke-opacity="1" stroke-miterlimit="10" d="M 217.523438 224.328125 L 191.363281 144.484375 "/>
<path fill="none" stroke-width="0.335035" stroke-linecap="round" stroke-linejoin="round" stroke="rgb(90.196078%, 62.352941%, 0%)" stroke-opacity="1" stroke-miterlimit="10" d="M 218.539062 228.382812 L 231.699219 303.125 "/>
<path fill="none" stroke-width="0.189223" stroke-linecap="round" stroke-linejoin="round" stroke="rgb(90.196078%, 62.352941%, 0%)" stroke-opacity="1" stroke-miterlimit="10" d="M 217.339844 224.398438 L 160.742188 93.914062 "/>
<path fill="none" stroke-width="0.266244" stroke-linecap="round" stroke-linejoin="round" stroke="rgb(33.72549%, 70.588235%, 91.372549%)" stroke-opacity="1" stroke-miterlimit="10" d="M 219.496094 227.949219 L 245.339844 259.78125 "/>
<path fill="none" stroke-width="0.547494" stroke-linecap="round" stroke-linejoin="round" stroke="rgb(33.72549%, 70.588235%, 91.372549%)" stroke-opacity="1" stroke-miterlimit="10" d="M 218.847656 228.304688 L 226.089844 249.714844 "/>
<path fill="none" stroke-width="0.688561" stroke-linecap="round" stroke-linejoin="round" stroke="rgb(33.72549%, 70.588235%, 91.372549%)" stroke-opacity="1" stroke-miterlimit="10" d="M 338.734375 224.363281 L 293.480469 224.171875 "/>
<path fill="none" stroke-width="0.161355" stroke-linecap="round" stroke-linejoin="round" stroke="rgb(33.72549%, 70.588235%, 91.372549%)" stroke-opacity="1" stroke-miterlimit="10" d="M 341.1875 227.886719 L 287.316406 375.632812 "/>
<path fill="none" stroke-width="0.260347" stroke-linecap="round" stroke-linejoin="round" stroke="rgb(33.72549%, 70.588235%, 91.372549%)" stroke-opacity="1" stroke-miterlimit="10" d="M 212.988281 171.152344 L 187.5625 270.558594 "/>
<path fill="none" stroke-width="0.132874" stroke-linecap="round" stroke-linejoin="round" stroke="rgb(33.72549%, 70.588235%, 91.372549%)" stroke-opacity="1" stroke-miterlimit="10" d="M 214.046875 168.375 L 260.738281 78.371094 "/>
<path fill="none" stroke-width="0.157955" stroke-linecap="round" stroke-linejoin="round" stroke="rgb(33.72549%, 70.588235%, 91.372549%)" stroke-opacity="1" stroke-miterlimit="10" d="M 213.34375 171.195312 L 212.027344 291.757812 "/>
<path fill="none" stroke-width="0.179934" stroke-linecap="round" stroke-linejoin="round" stroke="rgb(33.72549%, 70.588235%, 91.372549%)" stroke-opacity="1" stroke-miterlimit="10" d="M 212.414062 170.859375 L 167.40625 226 "/>
<path fill="none" stroke-width="0.182623" stroke-linecap="round" stroke-linejoin="round" stroke="rgb(33.72549%, 70.588235%, 91.372549%)" stroke-opacity="1" stroke-miterlimit="10" d="M 212.386719 168.566406 L 191.648438 144.328125 "/>
<path fill="none" stroke-width="0.349732" stroke-linecap="round" stroke-linejoin="round" stroke="rgb(90.196078%, 62.352941%, 0%)" stroke-opacity="1" stroke-miterlimit="10" d="M 213.867188 171.105469 L 245.945312 259.441406 "/>
<path fill="none" stroke-width="0.227629" stroke-linecap="round" stroke-linejoin="round" stroke="rgb(33.72549%, 70.588235%, 91.372549%)" stroke-opacity="1" stroke-miterlimit="10" d="M 187.5625 270.558594 L 286.453125 375.808594 "/>
<path fill="none" stroke-width="0.439174" stroke-linecap="round" stroke-linejoin="round" stroke="rgb(33.72549%, 70.588235%, 91.372549%)" stroke-opacity="1" stroke-miterlimit="10" d="M 187.5625 270.558594 L 167.230469 227.410156 "/>
<path fill="none" stroke-width="0.422954" stroke-linecap="round" stroke-linejoin="round" stroke="rgb(33.72549%, 70.588235%, 91.372549%)" stroke-opacity="1" stroke-miterlimit="10" d="M 187.5625 270.558594 L 202.035156 325.730469 "/>
<path fill="none" stroke-width="0.677488" stroke-linecap="round" stroke-linejoin="round" stroke="rgb(33.72549%, 70.588235%, 91.372549%)" stroke-opacity="1" stroke-miterlimit="10" d="M 187.5625 270.558594 L 230.769531 303.6875 "/>
<path fill="none" stroke-width="0.134463" stroke-linecap="round" stroke-linejoin="round" stroke="rgb(33.72549%, 70.588235%, 91.372549%)" stroke-opacity="1" stroke-miterlimit="10" d="M 187.5625 270.558594 L 244.589844 261.730469 "/>
<path fill="none" stroke-width="0.271294" stroke-linecap="round" stroke-linejoin="round" stroke="rgb(33.72549%, 70.588235%, 91.372549%)" stroke-opacity="1" stroke-miterlimit="10" d="M 187.5625 270.558594 L 225.230469 251.796875 "/>
<path fill="none" stroke-width="0.398068" stroke-linecap="round" stroke-linejoin="round" stroke="rgb(33.72549%, 70.588235%, 91.372549%)" stroke-opacity="1" stroke-miterlimit="10" d="M 262.015625 78.417969 L 289.628906 142.851562 "/>
<path fill="none" stroke-width="0.129456" stroke-linecap="round" stroke-linejoin="round" stroke="rgb(33.72549%, 70.588235%, 91.372549%)" stroke-opacity="1" stroke-miterlimit="10" d="M 260.34375 78.074219 L 191.710938 143.113281 "/>
<path fill="none" stroke-width="0.112943" stroke-linecap="round" stroke-linejoin="round" stroke="rgb(33.72549%, 70.588235%, 91.372549%)" stroke-opacity="1" stroke-miterlimit="10" d="M 261.308594 78.535156 L 246.828125 259.320312 "/>
<path fill="none" stroke-width="0.703298" stroke-linecap="round" stroke-linejoin="round" stroke="rgb(33.72549%, 70.588235%, 91.372549%)" stroke-opacity="1" stroke-miterlimit="10" d="M 291.140625 150.015625 L 291.96875 222.671875 "/>
<path fill="none" stroke-width="0.280085" stroke-linecap="round" stroke-linejoin="round" stroke="rgb(90.196078%, 62.352941%, 0%)" stroke-opacity="1" stroke-miterlimit="10" d="M 294.832031 146.21875 L 387.609375 144.609375 "/>
<path fill="none" stroke-width="0.21687" stroke-linecap="round" stroke-linejoin="round" stroke="rgb(33.72549%, 70.588235%, 91.372549%)" stroke-opacity="1" stroke-miterlimit="10" d="M 287.367188 146.1875 L 191.941406 143.710938 "/>
<path fill="none" stroke-width="0.207504" stroke-linecap="round" stroke-linejoin="round" stroke="rgb(90.196078%, 62.352941%, 0%)" stroke-opacity="1" stroke-miterlimit="10" d="M 291.460938 150 L 304.34375 281.597656 "/>
<path fill="none" stroke-width="0.390205" stroke-linecap="round" stroke-linejoin="round" stroke="rgb(33.72549%, 70.588235%, 91.372549%)" stroke-opacity="1" stroke-miterlimit="10" d="M 254.792969 336.519531 L 286.5 375.765625 "/>
<path fill="none" stroke-width="0.585463" stroke-linecap="round" stroke-linejoin="round" stroke="rgb(33.72549%, 70.588235%, 91.372549%)" stroke-opacity="1" stroke-miterlimit="10" d="M 252.011719 333.394531 L 212.605469 293.195312 "/>
<path fill="none" stroke-width="0.256415" stroke-linecap="round" stroke-linejoin="round" stroke="rgb(33.72549%, 70.588235%, 91.372549%)" stroke-opacity="1" stroke-miterlimit="10" d="M 251.394531 334.679688 L 207.335938 330.261719 "/>
<path fill="none" stroke-width="1.007622" stroke-linecap="round" stroke-linejoin="round" stroke="rgb(90.196078%, 62.352941%, 0%)" stroke-opacity="1" stroke-miterlimit="10" d="M 253.285156 332.804688 L 246.855469 263.496094 "/>
<path fill="none" stroke-width="0.13481" stroke-linecap="round" stroke-linejoin="round" stroke="rgb(90.196078%, 62.352941%, 0%)" stroke-opacity="1" stroke-miterlimit="10" d="M 252.835938 332.894531 L 227.027344 252.554688 "/>
<path fill="none" stroke-width="0.13481" stroke-linecap="round" stroke-linejoin="round" stroke="rgb(33.72549%, 70.588235%, 91.372549%)" stroke-opacity="1" stroke-miterlimit="10" d="M 293.152344 223.234375 L 388.535156 147.183594 "/>
<path fill="none" stroke-width="0.31519" stroke-linecap="round" stroke-linejoin="round" stroke="rgb(33.72549%, 70.588235%, 91.372549%)" stroke-opacity="1" stroke-miterlimit="10" d="M 290.851562 225.136719 L 212.65625 292.050781 "/>
<path fill="none" stroke-width="0.190934" stroke-linecap="round" stroke-linejoin="round" stroke="rgb(33.72549%, 70.588235%, 91.372549%)" stroke-opacity="1" stroke-miterlimit="10" d="M 291.089844 225.363281 L 232.851562 303.398438 "/>
<path fill="none" stroke-width="0.634528" stroke-linecap="round" stroke-linejoin="round" stroke="rgb(33.72549%, 70.588235%, 91.372549%)" stroke-opacity="1" stroke-miterlimit="10" d="M 290.832031 225.113281 L 248.28125 260.078125 "/>
<path fill="none" stroke-width="0.309153" stroke-linecap="round" stroke-linejoin="round" stroke="rgb(33.72549%, 70.588235%, 91.372549%)" stroke-opacity="1" stroke-miterlimit="10" d="M 290.601562 224.734375 L 227.949219 250.5625 "/>
<path fill="none" stroke-width="0.233138" stroke-linecap="round" stroke-linejoin="round" stroke="rgb(90.196078%, 62.352941%, 0%)" stroke-opacity="1" stroke-miterlimit="10" d="M 292.289062 225.628906 L 304 281.652344 "/>
<path fill="none" stroke-width="0.237847" stroke-linecap="round" stroke-linejoin="round" stroke="rgb(90.196078%, 62.352941%, 0%)" stroke-opacity="1" stroke-miterlimit="10" d="M 393.535156 148.4375 L 432.886719 239.878906 "/>
<path fill="none" stroke-width="0.149747" stroke-linecap="round" stroke-linejoin="round" stroke="rgb(33.72549%, 70.588235%, 91.372549%)" stroke-opacity="1" stroke-miterlimit="10" d="M 286.664062 375.664062 L 227.21875 252.476562 "/>
<path fill="none" stroke-width="0.218952" stroke-linecap="round" stroke-linejoin="round" stroke="rgb(33.72549%, 70.588235%, 91.372549%)" stroke-opacity="1" stroke-miterlimit="10" d="M 211.542969 291.90625 L 167.347656 227.34375 "/>
<path fill="none" stroke-width="0.248031" stroke-linecap="round" stroke-linejoin="round" stroke="rgb(33.72549%, 70.588235%, 91.372549%)" stroke-opacity="1" stroke-miterlimit="10" d="M 212.738281 293.03125 L 230.675781 303.828125 "/>
<path fill="none" stroke-width="0.436191" stroke-linecap="round" stroke-linejoin="round" stroke="rgb(33.72549%, 70.588235%, 91.372549%)" stroke-opacity="1" stroke-miterlimit="10" d="M 212.296875 291.804688 L 226.074219 252.539062 "/>
<path fill="none" stroke-width="0.183448" stroke-linecap="round" stroke-linejoin="round" stroke="rgb(33.72549%, 70.588235%, 91.372549%)" stroke-opacity="1" stroke-miterlimit="10" d="M 167.152344 227.441406 L 201.703125 325.832031 "/>
<path fill="none" stroke-width="0.160424" stroke-linecap="round" stroke-linejoin="round" stroke="rgb(33.72549%, 70.588235%, 91.372549%)" stroke-opacity="1" stroke-miterlimit="10" d="M 167.109375 225.847656 L 190.867188 144.496094 "/>
<path fill="none" stroke-width="0.203032" stroke-linecap="round" stroke-linejoin="round" stroke="rgb(33.72549%, 70.588235%, 91.372549%)" stroke-opacity="1" stroke-miterlimit="10" d="M 167.410156 227.296875 L 231 303.449219 "/>
<path fill="none" stroke-width="0.17794" stroke-linecap="round" stroke-linejoin="round" stroke="rgb(33.72549%, 70.588235%, 91.372549%)" stroke-opacity="1" stroke-miterlimit="10" d="M 167.644531 226.988281 L 244.742188 260.574219 "/>
<path fill="none" stroke-width="0.414674" stroke-linecap="round" stroke-linejoin="round" stroke="rgb(33.72549%, 70.588235%, 91.372549%)" stroke-opacity="1" stroke-miterlimit="10" d="M 167.652344 226.96875 L 225.1875 250.5625 "/>
<path fill="none" stroke-width="0.208433" stroke-linecap="round" stroke-linejoin="round" stroke="rgb(33.72549%, 70.588235%, 91.372549%)" stroke-opacity="1" stroke-miterlimit="10" d="M 202.835938 325.601562 L 191.15625 144.527344 "/>
<path fill="none" stroke-width="0.25376" stroke-linecap="round" stroke-linejoin="round" stroke="rgb(33.72549%, 70.588235%, 91.372549%)" stroke-opacity="1" stroke-miterlimit="10" d="M 206.304688 327.042969 L 230.832031 305.582031 "/>
<path fill="none" stroke-width="0.195681" stroke-linecap="round" stroke-linejoin="round" stroke="rgb(33.72549%, 70.588235%, 91.372549%)" stroke-opacity="1" stroke-miterlimit="10" d="M 205.390625 326.257812 L 245.535156 263.175781 "/>
<path fill="none" stroke-width="0.308306" stroke-linecap="round" stroke-linejoin="round" stroke="rgb(90.196078%, 62.352941%, 0%)" stroke-opacity="1" stroke-miterlimit="10" d="M 206.992188 328.117188 L 301.722656 286.089844 "/>
<path fill="none" stroke-width="0.112864" stroke-linecap="round" stroke-linejoin="round" stroke="rgb(33.72549%, 70.588235%, 91.372549%)" stroke-opacity="1" stroke-miterlimit="10" d="M 191.308594 144.503906 L 231.589844 303.148438 "/>
<path fill="none" stroke-width="0.136218" stroke-linecap="round" stroke-linejoin="round" stroke="rgb(33.72549%, 70.588235%, 91.372549%)" stroke-opacity="1" stroke-miterlimit="10" d="M 190.667969 142.972656 L 160.921875 93.820312 "/>
<path fill="none" stroke-width="0.131767" stroke-linecap="round" stroke-linejoin="round" stroke="rgb(33.72549%, 70.588235%, 91.372549%)" stroke-opacity="1" stroke-miterlimit="10" d="M 232.4375 303.183594 L 245.984375 263.394531 "/>
<path fill="none" stroke-width="0.161772" stroke-linecap="round" stroke-linejoin="round" stroke="rgb(33.72549%, 70.588235%, 91.372549%)" stroke-opacity="1" stroke-miterlimit="10" d="M 233.398438 304.203125 L 301.5625 285.632812 "/>
<path fill="none" stroke-width="0.219664" stroke-linecap="round" stroke-linejoin="round" stroke="rgb(33.72549%, 70.588235%, 91.372549%)" stroke-opacity="1" stroke-miterlimit="10" d="M 160.726562 93.921875 L 225.992188 249.75 "/>
<path fill="none" stroke-width="0.412991" stroke-linecap="round" stroke-linejoin="round" stroke="rgb(33.72549%, 70.588235%, 91.372549%)" stroke-opacity="1" stroke-miterlimit="10" d="M 227.941406 251.722656 L 301.710938 283.519531 "/>
<path fill="none" stroke-width="0.177719" stroke-linecap="round" stroke-linejoin="round" stroke="rgb(33.72549%, 70.588235%, 91.372549%)" stroke-opacity="1" stroke-miterlimit="10" d="M 307.707031 283.800781 L 431.105469 243.8125 "/>
<path fill-rule="nonzero" fill="rgb(74.509804%, 74.509804%, 74.509804%)" fill-opacity="1" stroke-width="0.75" stroke-linecap="round" stroke-linejoin="round" stroke="rgb(100%, 100%, 100%)" stroke-opacity="1" stroke-miterlimit="10" d="M 126.851562 108.671875 C 126.851562 110.664062 123.863281 110.664062 123.863281 108.671875 C 123.863281 106.675781 126.851562 106.675781 126.851562 108.671875 "/>
<path fill-rule="nonzero" fill="rgb(74.509804%, 74.509804%, 74.509804%)" fill-opacity="1" stroke-width="0.75" stroke-linecap="round" stroke-linejoin="round" stroke="rgb(100%, 100%, 100%)" stroke-opacity="1" stroke-miterlimit="10" d="M 171.640625 412.554688 C 171.640625 416.105469 166.316406 416.105469 166.316406 412.554688 C 166.316406 409.003906 171.640625 409.003906 171.640625 412.554688 "/>
<path fill-rule="nonzero" fill="rgb(74.509804%, 74.509804%, 74.509804%)" fill-opacity="1" stroke-width="0.75" stroke-linecap="round" stroke-linejoin="round" stroke="rgb(100%, 100%, 100%)" stroke-opacity="1" stroke-miterlimit="10" d="M 237.757812 93.425781 C 237.757812 96.976562 232.429688 96.976562 232.429688 93.425781 C 232.429688 89.875 237.757812 89.875 237.757812 93.425781 "/>
<path fill-rule="nonzero" fill="rgb(74.509804%, 74.509804%, 74.509804%)" fill-opacity="1" stroke-width="0.75" stroke-linecap="round" stroke-linejoin="round" stroke="rgb(100%, 100%, 100%)" stroke-opacity="1" stroke-miterlimit="10" d="M 161.785156 316.734375 C 161.785156 318.726562 158.796875 318.726562 158.796875 316.734375 C 158.796875 314.742188 161.785156 314.742188 161.785156 316.734375 "/>
<path fill-rule="nonzero" fill="rgb(74.509804%, 74.509804%, 74.509804%)" fill-opacity="1" stroke-width="0.75" stroke-linecap="round" stroke-linejoin="round" stroke="rgb(100%, 100%, 100%)" stroke-opacity="1" stroke-miterlimit="10" d="M 99.484375 363.265625 C 99.484375 364.382812 97.804688 364.382812 97.804688 363.265625 C 97.804688 362.148438 99.484375 362.148438 99.484375 363.265625 "/>
<path fill-rule="nonzero" fill="rgb(74.509804%, 74.509804%, 74.509804%)" fill-opacity="1" stroke-width="0.75" stroke-linecap="round" stroke-linejoin="round" stroke="rgb(100%, 100%, 100%)" stroke-opacity="1" stroke-miterlimit="10" d="M 220.269531 226.320312 C 220.269531 229.113281 216.078125 229.113281 216.078125 226.320312 C 216.078125 223.527344 220.269531 223.527344 220.269531 226.320312 "/>
<path fill-rule="nonzero" fill="rgb(74.509804%, 74.509804%, 74.509804%)" fill-opacity="1" stroke-width="0.75" stroke-linecap="round" stroke-linejoin="round" stroke="rgb(100%, 100%, 100%)" stroke-opacity="1" stroke-miterlimit="10" d="M 346.203125 224.378906 C 346.203125 229.355469 338.734375 229.355469 338.734375 224.378906 C 338.734375 219.398438 346.203125 219.398438 346.203125 224.378906 "/>
<path fill-rule="nonzero" fill="rgb(74.509804%, 74.509804%, 74.509804%)" fill-opacity="1" stroke-width="0.75" stroke-linecap="round" stroke-linejoin="round" stroke="rgb(100%, 100%, 100%)" stroke-opacity="1" stroke-miterlimit="10" d="M 214.851562 169.703125 C 214.851562 171.695312 211.863281 171.695312 211.863281 169.703125 C 211.863281 167.710938 214.851562 167.710938 214.851562 169.703125 "/>
<path fill-rule="nonzero" fill="rgb(74.509804%, 74.509804%, 74.509804%)" fill-opacity="1" stroke-width="0.75" stroke-linecap="round" stroke-linejoin="round" stroke="rgb(100%, 100%, 100%)" stroke-opacity="1" stroke-miterlimit="10" d="M 188.5625 270.558594 C 188.5625 271.894531 186.5625 271.894531 186.5625 270.558594 C 186.5625 269.226562 188.5625 269.226562 188.5625 270.558594 "/>
<path fill-rule="nonzero" fill="rgb(74.509804%, 74.509804%, 74.509804%)" fill-opacity="1" stroke-width="0.75" stroke-linecap="round" stroke-linejoin="round" stroke="rgb(100%, 100%, 100%)" stroke-opacity="1" stroke-miterlimit="10" d="M 262.921875 77.046875 C 262.921875 79.039062 259.933594 79.039062 259.933594 77.046875 C 259.933594 75.050781 262.921875 75.050781 262.921875 77.046875 "/>
<path fill-rule="nonzero" fill="rgb(74.509804%, 74.509804%, 74.509804%)" fill-opacity="1" stroke-width="0.75" stroke-linecap="round" stroke-linejoin="round" stroke="rgb(100%, 100%, 100%)" stroke-opacity="1" stroke-miterlimit="10" d="M 294.832031 146.28125 C 294.832031 151.261719 287.363281 151.261719 287.363281 146.28125 C 287.363281 141.304688 294.832031 141.304688 294.832031 146.28125 "/>
<path fill-rule="nonzero" fill="rgb(74.509804%, 74.509804%, 74.509804%)" fill-opacity="1" stroke-width="0.75" stroke-linecap="round" stroke-linejoin="round" stroke="rgb(100%, 100%, 100%)" stroke-opacity="1" stroke-miterlimit="10" d="M 255.574219 334.890625 C 255.574219 337.683594 251.382812 337.683594 251.382812 334.890625 C 251.382812 332.097656 255.574219 332.097656 255.574219 334.890625 "/>
<path fill-rule="nonzero" fill="rgb(74.509804%, 74.509804%, 74.509804%)" fill-opacity="1" stroke-width="0.75" stroke-linecap="round" stroke-linejoin="round" stroke="rgb(100%, 100%, 100%)" stroke-opacity="1" stroke-miterlimit="10" d="M 293.480469 224.164062 C 293.480469 226.160156 290.492188 226.160156 290.492188 224.164062 C 290.492188 222.171875 293.480469 222.171875 293.480469 224.164062 "/>
<path fill-rule="nonzero" fill="rgb(74.509804%, 74.509804%, 74.509804%)" fill-opacity="1" stroke-width="0.75" stroke-linecap="round" stroke-linejoin="round" stroke="rgb(100%, 100%, 100%)" stroke-opacity="1" stroke-miterlimit="10" d="M 396.101562 144.539062 C 396.101562 150.199219 387.609375 150.199219 387.609375 144.539062 C 387.609375 138.878906 396.101562 138.878906 396.101562 144.539062 "/>
<path fill-rule="nonzero" fill="rgb(74.509804%, 74.509804%, 74.509804%)" fill-opacity="1" stroke-width="0.75" stroke-linecap="round" stroke-linejoin="round" stroke="rgb(100%, 100%, 100%)" stroke-opacity="1" stroke-miterlimit="10" d="M 287.867188 376.417969 C 287.867188 377.539062 286.1875 377.539062 286.1875 376.417969 C 286.1875 375.300781 287.867188 375.300781 287.867188 376.417969 "/>
<path fill-rule="nonzero" fill="rgb(74.509804%, 74.509804%, 74.509804%)" fill-opacity="1" stroke-width="0.75" stroke-linecap="round" stroke-linejoin="round" stroke="rgb(100%, 100%, 100%)" stroke-opacity="1" stroke-miterlimit="10" d="M 212.855469 292.597656 C 212.855469 293.714844 211.179688 293.714844 211.179688 292.597656 C 211.179688 291.480469 212.855469 291.480469 212.855469 292.597656 "/>
<path fill-rule="nonzero" fill="rgb(74.509804%, 74.509804%, 74.509804%)" fill-opacity="1" stroke-width="0.75" stroke-linecap="round" stroke-linejoin="round" stroke="rgb(100%, 100%, 100%)" stroke-opacity="1" stroke-miterlimit="10" d="M 167.714844 226.652344 C 167.714844 227.769531 166.035156 227.769531 166.035156 226.652344 C 166.035156 225.535156 167.714844 225.535156 167.714844 226.652344 "/>
<path fill-rule="nonzero" fill="rgb(74.509804%, 74.509804%, 74.509804%)" fill-opacity="1" stroke-width="0.75" stroke-linecap="round" stroke-linejoin="round" stroke="rgb(100%, 100%, 100%)" stroke-opacity="1" stroke-miterlimit="10" d="M 207.355469 329.835938 C 207.355469 335.5 198.863281 335.5 198.863281 329.835938 C 198.863281 324.175781 207.355469 324.175781 207.355469 329.835938 "/>
<path fill-rule="nonzero" fill="rgb(74.509804%, 74.509804%, 74.509804%)" fill-opacity="1" stroke-width="0.75" stroke-linecap="round" stroke-linejoin="round" stroke="rgb(100%, 100%, 100%)" stroke-opacity="1" stroke-miterlimit="10" d="M 191.941406 143.6875 C 191.941406 144.808594 190.261719 144.808594 190.261719 143.6875 C 190.261719 142.570312 191.941406 142.570312 191.941406 143.6875 "/>
<path fill-rule="nonzero" fill="rgb(74.509804%, 74.509804%, 74.509804%)" fill-opacity="1" stroke-width="0.75" stroke-linecap="round" stroke-linejoin="round" stroke="rgb(100%, 100%, 100%)" stroke-opacity="1" stroke-miterlimit="10" d="M 233.453125 304.597656 C 233.453125 306.589844 230.460938 306.589844 230.460938 304.597656 C 230.460938 302.605469 233.453125 302.605469 233.453125 304.597656 "/>
<path fill-rule="nonzero" fill="rgb(74.509804%, 74.509804%, 74.509804%)" fill-opacity="1" stroke-width="0.75" stroke-linecap="round" stroke-linejoin="round" stroke="rgb(100%, 100%, 100%)" stroke-opacity="1" stroke-miterlimit="10" d="M 161.640625 92.542969 C 161.640625 94.535156 158.652344 94.535156 158.652344 92.542969 C 158.652344 90.550781 161.640625 90.550781 161.640625 92.542969 "/>
<path fill-rule="nonzero" fill="rgb(74.509804%, 74.509804%, 74.509804%)" fill-opacity="1" stroke-width="0.75" stroke-linecap="round" stroke-linejoin="round" stroke="rgb(100%, 100%, 100%)" stroke-opacity="1" stroke-miterlimit="10" d="M 248.757812 261.410156 C 248.757812 264.203125 244.566406 264.203125 244.566406 261.410156 C 244.566406 258.617188 248.757812 258.617188 248.757812 261.410156 "/>
<path fill-rule="nonzero" fill="rgb(74.509804%, 74.509804%, 74.509804%)" fill-opacity="1" stroke-width="0.75" stroke-linecap="round" stroke-linejoin="round" stroke="rgb(100%, 100%, 100%)" stroke-opacity="1" stroke-miterlimit="10" d="M 228.0625 251.128906 C 228.0625 253.121094 225.074219 253.121094 225.074219 251.128906 C 225.074219 249.136719 228.0625 249.136719 228.0625 251.128906 "/>
<path fill-rule="nonzero" fill="rgb(74.509804%, 74.509804%, 74.509804%)" fill-opacity="1" stroke-width="0.75" stroke-linecap="round" stroke-linejoin="round" stroke="rgb(100%, 100%, 100%)" stroke-opacity="1" stroke-miterlimit="10" d="M 307.863281 284.789062 C 307.863281 289.066406 301.449219 289.066406 301.449219 284.789062 C 301.449219 280.511719 307.863281 280.511719 307.863281 284.789062 "/>
<path fill-rule="nonzero" fill="rgb(74.509804%, 74.509804%, 74.509804%)" fill-opacity="1" stroke-width="0.75" stroke-linecap="round" stroke-linejoin="round" stroke="rgb(100%, 100%, 100%)" stroke-opacity="1" stroke-miterlimit="10" d="M 437.363281 242.824219 C 437.363281 247.101562 430.949219 247.101562 430.949219 242.824219 C 430.949219 238.546875 437.363281 238.546875 437.363281 242.824219 "/>
<g fill="rgb(0%, 0%, 54.509804%)" fill-opacity="1">
<use xlink:href="#glyph-0-1" x="120.359375" y="110.171875"/>
<use xlink:href="#glyph-0-2" x="123.359375" y="110.171875"/>
<use xlink:href="#glyph-0-3" x="126.359375" y="110.171875"/>
</g>
<g fill="rgb(0%, 0%, 54.509804%)" fill-opacity="1">
<use xlink:href="#glyph-0-1" x="163.980469" y="414.054688"/>
<use xlink:href="#glyph-0-4" x="166.980469" y="414.054688"/>
<use xlink:href="#glyph-0-5" x="170.980469" y="414.054688"/>
</g>
<g fill="rgb(0%, 0%, 54.509804%)" fill-opacity="1">
<use xlink:href="#glyph-0-1" x="230.09375" y="94.925781"/>
<use xlink:href="#glyph-0-4" x="233.09375" y="94.925781"/>
<use xlink:href="#glyph-0-6" x="237.09375" y="94.925781"/>
</g>
<g fill="rgb(0%, 0%, 54.509804%)" fill-opacity="1">
<use xlink:href="#glyph-0-1" x="155.292969" y="318.734375"/>
<use xlink:href="#glyph-0-7" x="158.292969" y="318.734375"/>
<use xlink:href="#glyph-0-8" x="162.292969" y="318.734375"/>
</g>
<g fill="rgb(0%, 0%, 54.509804%)" fill-opacity="1">
<use xlink:href="#glyph-0-8" x="93.644531" y="365.265625"/>
<use xlink:href="#glyph-0-1" x="96.644531" y="365.265625"/>
<use xlink:href="#glyph-0-9" x="99.644531" y="365.265625"/>
</g>
<g fill="rgb(0%, 0%, 54.509804%)" fill-opacity="1">
<use xlink:href="#glyph-0-8" x="213.175781" y="227.820312"/>
<use xlink:href="#glyph-0-10" x="216.175781" y="227.820312"/>
<use xlink:href="#glyph-0-11" x="219.175781" y="227.820312"/>
</g>
<g fill="rgb(0%, 0%, 54.509804%)" fill-opacity="1">
<use xlink:href="#glyph-0-8" x="337.96875" y="225.878906"/>
<use xlink:href="#glyph-0-5" x="340.96875" y="225.878906"/>
<use xlink:href="#glyph-0-12" x="343.96875" y="225.878906"/>
</g>
<g fill="rgb(0%, 0%, 54.509804%)" fill-opacity="1">
<use xlink:href="#glyph-0-8" x="208.359375" y="171.203125"/>
<use xlink:href="#glyph-0-4" x="211.359375" y="171.203125"/>
<use xlink:href="#glyph-0-13" x="215.359375" y="171.203125"/>
</g>
<g fill="rgb(0%, 0%, 54.509804%)" fill-opacity="1">
<use xlink:href="#glyph-0-13" x="182.5625" y="272.058594"/>
<use xlink:href="#glyph-0-3" x="185.5625" y="272.058594"/>
<use xlink:href="#glyph-0-8" x="189.5625" y="272.058594"/>
</g>
<g fill="rgb(0%, 0%, 54.509804%)" fill-opacity="1">
<use xlink:href="#glyph-0-10" x="256.425781" y="78.546875"/>
<use xlink:href="#glyph-0-10" x="259.425781" y="78.546875"/>
<use xlink:href="#glyph-0-11" x="262.425781" y="78.546875"/>
</g>
<g fill="rgb(0%, 0%, 54.509804%)" fill-opacity="1">
<use xlink:href="#glyph-0-10" x="286.097656" y="147.78125"/>
<use xlink:href="#glyph-0-2" x="289.097656" y="147.78125"/>
<use xlink:href="#glyph-0-11" x="292.097656" y="147.78125"/>
</g>
<g fill="rgb(0%, 0%, 54.509804%)" fill-opacity="1">
<use xlink:href="#glyph-0-10" x="248.476562" y="336.390625"/>
<use xlink:href="#glyph-0-14" x="251.476562" y="336.390625"/>
<use xlink:href="#glyph-0-15" x="255.476562" y="336.390625"/>
</g>
<g fill="rgb(0%, 0%, 54.509804%)" fill-opacity="1">
<use xlink:href="#glyph-0-5" x="286.984375" y="225.664062"/>
<use xlink:href="#glyph-0-1" x="289.984375" y="225.664062"/>
<use xlink:href="#glyph-0-11" x="292.984375" y="225.664062"/>
</g>
<g fill="rgb(0%, 0%, 54.509804%)" fill-opacity="1">
<use xlink:href="#glyph-0-5" x="387.855469" y="146.039062"/>
<use xlink:href="#glyph-0-5" x="390.855469" y="146.039062"/>
<use xlink:href="#glyph-0-16" x="393.855469" y="146.039062"/>
</g>
<g fill="rgb(0%, 0%, 54.509804%)" fill-opacity="1">
<use xlink:href="#glyph-0-17" x="282.027344" y="377.917969"/>
<use xlink:href="#glyph-0-18" x="285.027344" y="377.917969"/>
<use xlink:href="#glyph-0-19" x="288.027344" y="377.917969"/>
</g>
<g fill="rgb(0%, 0%, 54.509804%)" fill-opacity="1">
<use xlink:href="#glyph-0-17" x="207.019531" y="294.097656"/>
<use xlink:href="#glyph-0-8" x="210.019531" y="294.097656"/>
<use xlink:href="#glyph-0-19" x="213.019531" y="294.097656"/>
</g>
<g fill="rgb(0%, 0%, 54.509804%)" fill-opacity="1">
<use xlink:href="#glyph-0-17" x="161.875" y="228.152344"/>
<use xlink:href="#glyph-0-4" x="164.875" y="228.152344"/>
<use xlink:href="#glyph-0-8" x="168.875" y="228.152344"/>
</g>
<g fill="rgb(0%, 0%, 54.509804%)" fill-opacity="1">
<use xlink:href="#glyph-0-17" x="198.109375" y="331.335938"/>
<use xlink:href="#glyph-0-14" x="201.109375" y="331.335938"/>
<use xlink:href="#glyph-0-10" x="205.109375" y="331.335938"/>
</g>
<g fill="rgb(0%, 0%, 54.509804%)" fill-opacity="1">
<use xlink:href="#glyph-0-17" x="186.101562" y="145.1875"/>
<use xlink:href="#glyph-0-14" x="189.101562" y="145.1875"/>
<use xlink:href="#glyph-0-17" x="193.101562" y="145.1875"/>
</g>
<g fill="rgb(0%, 0%, 54.509804%)" fill-opacity="1">
<use xlink:href="#glyph-0-17" x="226.957031" y="306.097656"/>
<use xlink:href="#glyph-0-14" x="229.957031" y="306.097656"/>
<use xlink:href="#glyph-0-2" x="233.957031" y="306.097656"/>
</g>
<g fill="rgb(0%, 0%, 54.509804%)" fill-opacity="1">
<use xlink:href="#glyph-0-6" x="155.148438" y="94.042969"/>
<use xlink:href="#glyph-0-10" x="158.148438" y="94.042969"/>
<use xlink:href="#glyph-0-20" x="161.148438" y="94.042969"/>
</g>
<g fill="rgb(0%, 0%, 54.509804%)" fill-opacity="1">
<use xlink:href="#glyph-0-6" x="242.660156" y="262.910156"/>
<use xlink:href="#glyph-0-17" x="245.660156" y="262.910156"/>
<use xlink:href="#glyph-0-16" x="248.660156" y="262.910156"/>
</g>
<g fill="rgb(0%, 0%, 54.509804%)" fill-opacity="1">
<use xlink:href="#glyph-0-15" x="221.570312" y="252.628906"/>
<use xlink:href="#glyph-0-13" x="224.570312" y="252.628906"/>
<use xlink:href="#glyph-0-21" x="227.570312" y="252.628906"/>
</g>
<g fill="rgb(0%, 0%, 54.509804%)" fill-opacity="1">
<use xlink:href="#glyph-0-2" x="299.65625" y="286.289062"/>
<use xlink:href="#glyph-0-13" x="302.65625" y="286.289062"/>
<use xlink:href="#glyph-0-22" x="305.65625" y="286.289062"/>
</g>
<g fill="rgb(0%, 0%, 54.509804%)" fill-opacity="1">
<use xlink:href="#glyph-0-2" x="429.15625" y="244.324219"/>
<use xlink:href="#glyph-0-4" x="432.15625" y="244.324219"/>
<use xlink:href="#glyph-0-5" x="436.15625" y="244.324219"/>
</g>
</svg>
